# xmcd
#
# Track frame offsets:
# 150
# 5798
# 23291
# 43547
# 66720
# 87456
# 106687
# 122697
# 137831
#
# Disc length: 2106 seconds
#
#
# Revision: 0
# Processed by: cddbd v1.5PL3 Copyright (c) Steve Scherf et al.
# Submitted via: FreeRIP 2.11 
#
DISCID=73083809
DTITLE=Big Dick and the Extenders - Live
DYEAR=1997
DGENRE=Blues
TTITLE0=Intro
TTITLE1=300 Pounds of Joy
TTITLE2=Ninety-Nine and One-Half
TTITLE3=Tough On Me, Tough On You
TTITLE4=Honky Tonk
TTITLE5=I've Got Dreams to Remember
TTITLE6=International Hostages
TTITLE7=Behind Every Pretty Face
TTITLE8=The Choking Kind
EXTD=
EXTT0=
EXTT1=
EXTT2=
EXTT3=
EXTT4=
EXTT5=
EXTT6=
EXTT7=
EXTT8=
PLAYORDER=
